<svg xmlns="http://www.w3.org/2000/svg" viewBox="0 0 165.51 32"><defs><style>.cls-1{fill:#fff;}</style></defs><g id="katman_2" data-name="katman 2"><g id="katman_1-2" data-name="katman 1"><path class="cls-1" d="M54.85,10.75a4.41,4.41,0,0,1,3.69,1.93L60.84,11a7.43,7.43,0,0,0-6.1-3.11,7.75,7.75,0,0,0,0,15.5,7.43,7.43,0,0,0,6.1-3.11l-2.3-1.67a4.42,4.42,0,0,1-3.71,1.93,4.74,4.74,0,0,1-4.68-4.91A4.74,4.74,0,0,1,54.85,10.75Z"/><path class="cls-1" d="M67.54,12.73A5.34,5.34,0,1,0,73,18.07,5.31,5.31,0,0,0,67.54,12.73Zm0,8A2.57,2.57,0,0,1,65,18.07a2.57,2.57,0,1,1,5.13,0A2.56,2.56,0,0,1,67.54,20.74Z"/><path class="cls-1" d="M81.12,12.73a3.26,3.26,0,0,0-3,2V13H75.23V23.13h2.85V17.81a2.16,2.16,0,0,1,2.28-2.39c1,0,1.93.72,1.93,2.3v5.41h2.85V17.57C85.16,14.53,83.77,12.73,81.12,12.73Z"/><polygon class="cls-1" points="91.57 9.29 88.72 9.29 88.72 12.99 86.88 12.99 86.88 15.2 88.72 15.2 88.72 23.14 91.57 23.14 91.57 15.2 93.72 15.2 93.72 12.99 91.57 12.99 91.57 9.29"/><path class="cls-1" d="M100.11,12.73a5.21,5.21,0,0,0-5.39,5.34,5.17,5.17,0,0,0,5.41,5.33,5.69,5.69,0,0,0,4.5-2L103,19.68a3.62,3.62,0,0,1-2.68,1.2A2.48,2.48,0,0,1,97.7,19h7.62a9.9,9.9,0,0,0,.07-1.08A5.07,5.07,0,0,0,100.11,12.73ZM97.7,17.14a2.35,2.35,0,0,1,2.47-2,2.16,2.16,0,0,1,2.35,2Z"/><path class="cls-1" d="M113.47,12.73a3.27,3.27,0,0,0-3,2V13h-2.85V23.13h2.85V17.81a2.16,2.16,0,0,1,2.28-2.39c1,0,1.94.72,1.94,2.3v5.41h2.84V17.57C117.51,14.53,116.12,12.73,113.47,12.73Z"/><polygon class="cls-1" points="123.92 9.29 121.08 9.29 121.08 12.99 119.23 12.99 119.23 15.2 121.08 15.2 121.08 23.14 123.92 23.14 123.92 15.2 126.08 15.2 126.08 12.99 123.92 12.99 123.92 9.29"/><path class="cls-1" d="M130.75,15.16V13h-2.83V23.13h2.85V19.66c0-2.89,1-4.26,2.45-4.26a2.92,2.92,0,0,1,1.46.37l.65-2.72a3.57,3.57,0,0,0-1.61-.32A3.11,3.11,0,0,0,130.75,15.16Z"/><path class="cls-1" d="M144.18,14.33a3.91,3.91,0,0,0-3.29-1.6c-2.91,0-4.95,2.19-4.95,5.34s2.09,5.33,4.89,5.33a4,4,0,0,0,3.35-1.72v1.45H147V13h-2.84Zm-2.72,6.41a2.64,2.64,0,0,1-2.61-2.67,2.61,2.61,0,0,1,2.59-2.69,2.68,2.68,0,0,1,0,5.36Z"/><path class="cls-1" d="M151.32,8a1.58,1.58,0,1,0,0,3.15,1.58,1.58,0,1,0,0-3.15Z"/><rect class="cls-1" x="149.89" y="12.99" width="2.85" height="10.15"/><path class="cls-1" d="M161.49,12.73a3.27,3.27,0,0,0-3,2V13h-2.84V23.13h2.84V17.81a2.16,2.16,0,0,1,2.28-2.39c1,0,1.94.72,1.94,2.3v5.41h2.84V17.57C165.54,14.53,164.14,12.73,161.49,12.73Z"/><path class="cls-1" d="M31.39,8.14A10.55,10.55,0,0,0,11.84,5.52a10.44,10.44,0,0,0-1.67-.13C4.56,5.39,0,9.62,0,14.82c0,4.78,3.86,8.8,9,9.36a1.34,1.34,0,0,0,.29-2.67,7,7,0,0,1-6.57-6.69c0-3.71,3.36-6.74,7.48-6.74a8.28,8.28,0,0,1,2.09.28,1.34,1.34,0,0,0,1.59-.8,7.85,7.85,0,0,1,15.05,2,1.36,1.36,0,0,0,1.48,1.19c3.5,0,6.34,2.43,6.34,5.39s-2.87,5.39-6.4,5.39h0A1.34,1.34,0,0,0,29,22.91a1.36,1.36,0,0,0,1.36,1.34c5,0,9.09-3.62,9.09-8.08C39.41,12,35.9,8.61,31.39,8.14Z"/><path class="cls-1" d="M12.8,17.85a1,1,0,0,0-1,1v4.05a1,1,0,0,0,2,0V18.86A1,1,0,0,0,12.8,17.85Z"/><path class="cls-1" d="M12.8,25.26a1,1,0,1,0,1,1A1,1,0,0,0,12.8,25.26Z"/><path class="cls-1" d="M21.78,25.94a1,1,0,0,0-1,1v4a1,1,0,0,0,2,0V27A1,1,0,0,0,21.78,25.94Z"/><path class="cls-1" d="M21.78,15.16a1,1,0,0,0-1,1v4a1,1,0,0,0,2,0v-4A1,1,0,0,0,21.78,15.16Z"/><path class="cls-1" d="M21.78,22.57a1,1,0,1,0,1,1A1,1,0,0,0,21.78,22.57Z"/><path class="cls-1" d="M17.29,20.55a1,1,0,0,0-1,1v4a1,1,0,0,0,2,0v-4A1,1,0,0,0,17.29,20.55Z"/><path class="cls-1" d="M17.29,28a1,1,0,1,0,1,1A1,1,0,0,0,17.29,28Z"/><path class="cls-1" d="M17.29,17.18a1,1,0,1,0,1,1A1,1,0,0,0,17.29,17.18Z"/><path class="cls-1" d="M26.27,21.89a1,1,0,0,0-1,1v4a1,1,0,1,0,2,0v-4A1,1,0,0,0,26.27,21.89Z"/><path class="cls-1" d="M26.27,18.53a1,1,0,1,0,1,1A1,1,0,0,0,26.27,18.53Z"/></g></g></svg>