<svg width="492" height="85" viewBox="0 0 492 85" fill="none" xmlns="http://www.w3.org/2000/svg">
<g clip-path="url(#clip0_720_29815)">
<path d="M148.242 27.8674C150.498 27.8341 152.728 28.3725 154.729 29.4338C156.73 30.4952 158.44 32.0463 159.705 33.9473L166.83 28.6865C164.679 25.6297 161.836 23.1439 158.542 21.4388C155.247 19.7337 151.597 18.8593 147.901 18.8894C141.601 18.956 135.584 21.5602 131.17 26.131C126.756 30.7019 124.305 36.8661 124.355 43.2718C124.322 46.4475 124.905 49.5985 126.071 52.5448C127.237 55.491 128.963 58.1746 131.15 60.4421C133.337 62.7096 135.942 64.5165 138.816 65.7594C141.691 67.0023 144.778 67.6569 147.901 67.6857C151.598 67.7211 155.25 66.8491 158.545 65.1435C161.841 63.438 164.683 60.9493 166.83 57.8887L159.705 52.6279C158.434 54.5396 156.715 56.0994 154.703 57.1664C152.691 58.2333 150.449 58.7739 148.18 58.7392C146.219 58.7195 144.282 58.3007 142.483 57.5077C140.685 56.7147 139.06 55.5634 137.706 54.1218C136.352 52.6802 135.295 50.9775 134.598 49.114C133.902 47.2506 133.579 45.2641 133.649 43.2718C133.583 41.2784 133.911 39.2917 134.614 37.4295C135.316 35.5673 136.38 33.8675 137.741 32.4309C139.101 30.9943 140.732 29.8502 142.536 29.0663C144.34 28.2824 146.28 27.8747 148.242 27.8674V27.8674Z" fill="#011465"/>
<path d="M187.557 34.0724C185.326 33.9742 183.099 34.3361 181.009 35.1364C178.92 35.9367 177.011 37.1588 175.398 38.7291C173.786 40.2994 172.502 42.1853 171.626 44.2733C170.749 46.3614 170.297 48.6082 170.297 50.8786C170.297 53.149 170.749 55.3958 171.626 57.4839C172.502 59.5719 173.786 61.4578 175.398 63.0281C177.011 64.5984 178.92 65.8205 181.009 66.6208C183.099 67.4211 185.326 67.783 187.557 67.6848C189.788 67.783 192.015 67.4211 194.104 66.6208C196.194 65.8205 198.102 64.5984 199.715 63.0281C201.328 61.4578 202.611 59.5719 203.488 57.4839C204.365 55.3958 204.817 53.149 204.817 50.8786C204.817 48.6082 204.365 46.3614 203.488 44.2733C202.611 42.1853 201.328 40.2994 199.715 38.7291C198.102 37.1588 196.194 35.9367 194.104 35.1364C192.015 34.3361 189.788 33.9742 187.557 34.0724V34.0724ZM187.557 59.2738C186.487 59.2704 185.429 59.0479 184.446 58.6196C183.463 58.1913 182.575 57.566 181.834 56.781C181.094 55.996 180.517 55.0673 180.138 54.0505C179.758 53.0337 179.584 51.9496 179.626 50.8629C179.558 49.7593 179.713 48.6533 180.082 47.6131C180.45 46.5729 181.025 45.6206 181.769 44.8147C182.514 44.0089 183.413 43.3666 184.411 42.9276C185.409 42.4886 186.485 42.2621 187.572 42.2621C188.66 42.2621 189.736 42.4886 190.734 42.9276C191.732 43.3666 192.631 44.0089 193.375 44.8147C194.12 45.6206 194.694 46.5729 195.063 47.6131C195.432 48.6533 195.587 49.7593 195.519 50.8629C195.569 51.9574 195.401 53.051 195.023 54.0773C194.646 55.1036 194.067 56.0413 193.323 56.8335C192.578 57.6258 191.683 58.2562 190.692 58.6865C189.701 59.1168 188.634 59.338 187.557 59.3368V59.2738Z" fill="#011465"/>
<path d="M229.693 34.0742C227.708 34.0865 225.77 34.6897 224.118 35.8094C222.466 36.929 221.173 38.5161 220.399 40.3746V34.8933H211.414V66.8676H220.213V50.1086C220.107 49.1234 220.214 48.1267 220.527 47.188C220.84 46.2494 221.351 45.3915 222.023 44.6744C222.696 43.9574 223.515 43.3984 224.422 43.0365C225.33 42.6747 226.304 42.5188 227.277 42.5797C230.375 42.5797 233.287 44.8163 233.287 49.8251V66.8676H242.086V49.3526C242.086 39.776 237.872 34.0742 229.693 34.0742Z" fill="#011465"/>
<path d="M262.038 23.2695H253.208V34.8937H247.477V41.8871H253.208V66.868H262.038V41.8871H268.699V34.8937H262.038V23.2695Z" fill="#011465"/>
<path d="M288.556 34.0747C286.354 34.001 284.16 34.3856 282.11 35.2048C280.059 36.0241 278.195 37.2607 276.631 38.8389C275.067 40.4171 273.837 42.3034 273.016 44.3823C272.195 46.4612 271.801 48.6887 271.857 50.9282C271.791 53.166 272.179 55.3935 272.998 57.4718C273.817 59.55 275.048 61.4343 276.615 63.007C278.182 64.5797 280.051 65.807 282.106 66.6122C284.16 67.4175 286.356 67.7834 288.556 67.6871C291.195 67.7658 293.819 67.2404 296.232 66.1499C298.645 65.0594 300.786 63.4316 302.498 61.3868L297.355 56.126C296.303 57.2925 295.025 58.2249 293.601 58.8647C292.177 59.5044 290.639 59.8376 289.083 59.8432C287.258 59.9927 285.441 59.4751 283.959 58.3836C282.476 57.2921 281.426 55.6984 280.996 53.8893H304.635C304.635 52.4403 304.852 51.3692 304.852 50.4871C304.908 48.3028 304.524 46.1299 303.723 44.1023C302.922 42.0747 301.721 40.2354 300.195 38.6977C298.668 37.16 296.847 35.9565 294.846 35.1615C292.844 34.3664 290.703 33.9965 288.556 34.0747ZM280.996 47.967C281.31 46.1853 282.249 44.5802 283.64 43.4502C285.031 42.3202 286.778 41.7424 288.556 41.8241C289.442 41.7466 290.334 41.8486 291.181 42.124C292.028 42.3995 292.812 42.8431 293.49 43.4291C294.167 44.015 294.723 44.7317 295.126 45.5377C295.528 46.3437 295.77 47.2229 295.836 48.1245L280.996 47.967Z" fill="#011465"/>
<path d="M329.885 34.0742C327.899 34.0824 325.959 34.684 324.306 35.8042C322.654 36.9244 321.362 38.5137 320.59 40.3746V34.8933H311.637V66.8676H320.466V50.1086C320.361 49.1234 320.468 48.1267 320.781 47.188C321.094 46.2494 321.604 45.3915 322.277 44.6744C322.95 43.9574 323.768 43.3984 324.676 43.0365C325.583 42.6747 326.557 42.5188 327.53 42.5797C330.628 42.5797 333.51 44.8163 333.51 49.8251V66.8676H342.339V49.3526C342.401 39.776 338.126 34.0742 329.885 34.0742Z" fill="#011465"/>
<path d="M362.261 23.2695H353.431V34.8937H347.73V41.8871H353.431V66.868H362.261V41.8871H368.922V34.8937H362.261V23.2695Z" fill="#011465"/>
<path d="M383.391 41.7587V34.8913H374.654V66.8657H383.484V55.903C383.484 46.8305 386.582 42.5148 391.074 42.5148C392.657 42.4944 394.216 42.8963 395.598 43.6803L397.612 35.1118C396.049 34.3821 394.343 34.0265 392.624 34.0723C390.462 34.1237 388.38 34.908 386.707 36.3007C385.034 37.6933 383.867 39.6144 383.391 41.7587V41.7587Z" fill="#011465"/>
<path d="M424.875 39.1442C423.718 37.5193 422.186 36.2075 420.415 35.3234C418.643 34.4393 416.686 34.0098 414.713 34.0724C405.698 34.0724 399.223 41.0028 399.223 50.9259C399.223 60.8489 405.667 67.6848 414.373 67.6848C416.425 67.7419 418.459 67.2795 420.293 66.3393C422.126 65.399 423.701 64.0103 424.875 62.298V66.8658H433.705V34.8914H424.875V39.1442ZM416.479 59.3368C415.405 59.3245 414.344 59.0972 413.356 58.6678C412.369 58.2384 411.474 57.6154 410.723 56.8343C409.972 56.0533 409.38 55.1295 408.98 54.1157C408.58 53.1019 408.381 52.018 408.393 50.9259C408.36 49.8315 408.542 48.7414 408.927 47.7191C409.312 46.6967 409.894 45.7625 410.638 44.971C411.382 44.1794 412.273 43.5462 413.26 43.1083C414.247 42.6704 415.31 42.4366 416.386 42.4204C418.505 42.5519 420.494 43.5003 421.949 45.0721C423.403 46.6438 424.213 48.7206 424.213 50.8786C424.213 53.0367 423.403 55.1134 421.949 56.6852C420.494 58.2569 418.505 59.2053 416.386 59.3368H416.479Z" fill="#011465"/>
<path d="M447.151 19.1735C446.497 19.1483 445.844 19.256 445.23 19.4905C444.617 19.725 444.056 20.0815 443.58 20.5391C443.104 20.9967 442.723 21.5463 442.458 22.1556C442.194 22.7649 442.051 23.4218 442.039 24.0878C441.99 25.1175 442.244 26.1387 442.771 27.02C443.297 27.9013 444.07 28.6025 444.991 29.0333C445.912 29.4641 446.939 29.6048 447.939 29.4374C448.94 29.2699 449.868 28.802 450.605 28.0938C451.342 27.3855 451.853 26.4693 452.074 25.4631C452.294 24.4568 452.213 23.4065 451.842 22.4472C451.471 21.4879 450.825 20.6636 449.989 20.0802C449.154 19.4968 448.165 19.181 447.151 19.1735Z" fill="#011465"/>
<path d="M451.55 34.8926H442.721V66.8669H451.55V34.8926Z" fill="#011465"/>
<path d="M478.659 34.0742C476.673 34.0824 474.733 34.684 473.081 35.8042C471.428 36.9244 470.136 38.5137 469.365 40.3746V34.8933H460.535V66.8676H469.365V50.1086C469.259 49.1234 469.367 48.1267 469.679 47.188C469.992 46.2494 470.503 45.3915 471.175 44.6744C471.848 43.9574 472.667 43.3984 473.574 43.0365C474.482 42.6747 475.456 42.5188 476.429 42.5797C479.527 42.5797 482.408 44.8163 482.408 49.8251V66.8676H491.238V49.3526C491.176 39.776 486.838 34.0742 478.659 34.0742Z" fill="#011465"/>
</g>
<g clip-path="url(#clip1_720_29815)">
<path d="M84.0011 21.6223C82.6966 16.0875 79.7273 11.0774 75.4872 7.25679C71.2472 3.43619 65.9369 0.985777 60.2611 0.230759C54.5853 -0.52426 48.8123 0.451817 43.7084 3.02945C38.6045 5.60708 34.411 9.66439 31.6844 14.6629C30.2064 14.4292 28.712 14.3137 27.2154 14.3176C12.2028 14.3176 0 25.5535 0 39.366C0 52.0629 10.3295 62.741 24.0844 64.2285C25.0319 64.3307 25.9815 64.055 26.7242 63.4622C27.467 62.8695 27.942 62.0081 28.045 61.0676C28.1479 60.1271 27.8702 59.1846 27.273 58.4473C26.6758 57.7101 25.808 57.2385 24.8605 57.1363C20.2344 56.8579 15.8765 54.8871 12.6292 51.6049C9.38186 48.3227 7.47559 43.9622 7.27884 39.366C7.27884 29.5113 16.2704 21.4629 27.2957 21.4629C29.1843 21.4732 31.0638 21.7232 32.8886 22.2067C33.7369 22.4308 34.6386 22.3383 35.4229 21.9467C36.2071 21.555 36.8193 20.8914 37.1435 20.0817C38.9059 15.8214 42.0397 12.2601 46.0557 9.95373C50.0717 7.64732 54.744 6.72552 59.3433 7.3322C63.9426 7.93889 68.2102 10.0399 71.48 13.3074C74.7497 16.5748 76.8377 20.8249 77.418 25.3942C77.5323 26.3297 78.0105 27.1839 78.7504 27.7744C79.4903 28.365 80.4334 28.6451 81.3785 28.5551C90.7447 28.5551 98.3447 35.0098 98.3447 42.8723C98.3447 50.7348 90.6644 57.1895 81.218 57.1895C80.7357 57.1857 80.2576 57.2785 79.8123 57.4624C79.3669 57.6463 78.9636 57.9175 78.6263 58.2597C78.289 58.6019 78.0248 59.0081 77.8493 59.4541C77.6739 59.9001 77.5909 60.3766 77.6053 60.8551C77.6194 61.8039 78.009 62.7092 78.69 63.3752C79.371 64.0413 80.2887 64.4146 81.2447 64.4145C94.625 64.4145 105.57 54.7988 105.57 42.952C105.463 31.8754 96.07 22.8707 84.0011 21.6223Z" fill="#0013FF"/>
<path d="M34.2542 47.4141C33.5444 47.4141 32.8638 47.6939 32.3619 48.1921C31.8601 48.6902 31.5781 49.3658 31.5781 50.0703V60.8281C31.5781 61.5326 31.8601 62.2082 32.3619 62.7064C32.8638 63.2045 33.5444 63.4844 34.2542 63.4844C34.9639 63.4844 35.6446 63.2045 36.1464 62.7064C36.6483 62.2082 36.9302 61.5326 36.9302 60.8281V50.0969C36.9338 49.7458 36.8672 49.3976 36.7343 49.0722C36.6014 48.7469 36.4048 48.4509 36.1559 48.2014C35.9071 47.9519 35.6109 47.7539 35.2845 47.6188C34.958 47.4836 34.6079 47.414 34.2542 47.4141V47.4141Z" fill="#0013FF"/>
<path d="M34.2542 67.0957C33.7249 67.0957 33.2075 67.2515 32.7674 67.5434C32.3274 67.8352 31.9844 68.2501 31.7818 68.7355C31.5793 69.2208 31.5263 69.7549 31.6295 70.2702C31.7328 70.7854 31.9877 71.2587 32.3619 71.6302C32.7362 72.0017 33.213 72.2547 33.7321 72.3572C34.2512 72.4597 34.7893 72.4071 35.2782 72.206C35.7672 72.005 36.1852 71.6645 36.4792 71.2277C36.7733 70.7909 36.9302 70.2773 36.9302 69.752C36.9302 69.0475 36.6483 68.3718 36.1464 67.8737C35.6446 67.3756 34.9639 67.0957 34.2542 67.0957Z" fill="#0013FF"/>
<path d="M58.2835 68.9043C57.5737 68.9043 56.8931 69.1842 56.3912 69.6823C55.8894 70.1804 55.6074 70.8561 55.6074 71.5606V82.1856C55.6074 82.89 55.8894 83.5657 56.3912 84.0638C56.8931 84.5619 57.5737 84.8418 58.2835 84.8418C58.9932 84.8418 59.6739 84.5619 60.1757 84.0638C60.6776 83.5657 60.9595 82.89 60.9595 82.1856V71.7199C60.9814 71.3579 60.9284 70.9953 60.8038 70.6544C60.6792 70.3135 60.4855 70.0016 60.2348 69.7378C59.9841 69.474 59.6816 69.2639 59.346 69.1206C59.0104 68.9773 58.6488 68.9036 58.2835 68.9043V68.9043Z" fill="#0013FF"/>
<path d="M58.2835 40.2695C57.5737 40.2695 56.8931 40.5494 56.3912 41.0475C55.8894 41.5457 55.6074 42.2213 55.6074 42.9258V53.5508C55.6074 54.2553 55.8894 54.9309 56.3912 55.429C56.8931 55.9272 57.5737 56.207 58.2835 56.207C58.9932 56.207 59.6739 55.9272 60.1757 55.429C60.6776 54.9309 60.9595 54.2553 60.9595 53.5508V42.9258C60.9595 42.2213 60.6776 41.5457 60.1757 41.0475C59.6739 40.5494 58.9932 40.2695 58.2835 40.2695Z" fill="#0013FF"/>
<path d="M58.2835 59.9531C57.7542 59.9531 57.2368 60.1089 56.7967 60.4008C56.3567 60.6927 56.0137 61.1075 55.8111 61.5929C55.6086 62.0782 55.5556 62.6123 55.6588 63.1276C55.7621 63.6428 56.017 64.1161 56.3912 64.4876C56.7655 64.8591 57.2423 65.1121 57.7614 65.2146C58.2805 65.3171 58.8186 65.2645 59.3075 65.0634C59.7965 64.8624 60.2145 64.5219 60.5085 64.0851C60.8026 63.6483 60.9595 63.1347 60.9595 62.6094C60.9595 61.9049 60.6776 61.2293 60.1757 60.7311C59.6739 60.233 58.9932 59.9531 58.2835 59.9531Z" fill="#0013FF"/>
<path d="M46.2678 54.5859C45.5581 54.5859 44.8774 54.8658 44.3756 55.3639C43.8737 55.8621 43.5918 56.5377 43.5918 57.2422V67.8672C43.5918 68.5717 43.8737 69.2473 44.3756 69.7454C44.8774 70.2436 45.5581 70.5234 46.2678 70.5234C46.9776 70.5234 47.6582 70.2436 48.1601 69.7454C48.6619 69.2473 48.9439 68.5717 48.9439 67.8672V57.2422C48.9439 56.5377 48.6619 55.8621 48.1601 55.3639C47.6582 54.8658 46.9776 54.5859 46.2678 54.5859Z" fill="#0013FF"/>
<path d="M46.2678 74.375C45.7386 74.375 45.2212 74.5308 44.7811 74.8227C44.341 75.1145 43.998 75.5294 43.7955 76.0147C43.593 76.5001 43.54 77.0342 43.6432 77.5495C43.7465 78.0647 44.0013 78.538 44.3756 78.9095C44.7498 79.281 45.2267 79.534 45.7458 79.6365C46.2649 79.739 46.8029 79.6863 47.2919 79.4853C47.7809 79.2843 48.1988 78.9438 48.4929 78.507C48.7869 78.0702 48.9439 77.5566 48.9439 77.0312C48.9439 76.3268 48.6619 75.6511 48.1601 75.153C47.6582 74.6549 46.9776 74.375 46.2678 74.375Z" fill="#0013FF"/>
<path d="M46.2678 45.6348C45.7386 45.6348 45.2212 45.7905 44.7811 46.0824C44.341 46.3743 43.998 46.7891 43.7955 47.2745C43.593 47.7599 43.54 48.294 43.6432 48.8092C43.7465 49.3245 44.0013 49.7978 44.3756 50.1693C44.7498 50.5407 45.2267 50.7937 45.7458 50.8962C46.2649 50.9987 46.8029 50.9461 47.2919 50.7451C47.7809 50.544 48.1988 50.2036 48.4929 49.7667C48.7869 49.3299 48.9439 48.8164 48.9439 48.291C48.9439 47.5865 48.6619 46.9109 48.1601 46.4128C47.6582 45.9146 46.9776 45.6348 46.2678 45.6348Z" fill="#0013FF"/>
<path d="M70.2991 58.1465C69.5894 58.1465 68.9087 58.4263 68.4068 58.9245C67.905 59.4226 67.623 60.0983 67.623 60.8027V71.4277C67.623 72.1322 67.905 72.8078 68.4068 73.306C68.9087 73.8041 69.5894 74.084 70.2991 74.084C71.0088 74.084 71.6895 73.8041 72.1913 73.306C72.6932 72.8078 72.9751 72.1322 72.9751 71.4277V60.8027C72.9751 60.0983 72.6932 59.4226 72.1913 58.9245C71.6895 58.4263 71.0088 58.1465 70.2991 58.1465Z" fill="#0013FF"/>
<path d="M70.2991 49.2207C69.7698 49.2207 69.2524 49.3765 68.8124 49.6684C68.3723 49.9602 68.0293 50.3751 67.8267 50.8604C67.6242 51.3458 67.5712 51.8799 67.6745 52.3952C67.7777 52.9104 68.0326 53.3837 68.4068 53.7552C68.7811 54.1267 69.2579 54.3797 69.777 54.4822C70.2961 54.5847 70.8342 54.5321 71.3232 54.331C71.8122 54.13 72.2301 53.7895 72.5241 53.3527C72.8182 52.9159 72.9751 52.4023 72.9751 51.877C72.9751 51.1725 72.6932 50.4968 72.1913 49.9987C71.6895 49.5006 71.0088 49.2207 70.2991 49.2207Z" fill="#0013FF"/>
</g>
<defs>
<clipPath id="clip0_720_29815">
<rect width="366.759" height="48.7963" fill="white" transform="translate(124.354 18.8887)"/>
</clipPath>
<clipPath id="clip1_720_29815">
<rect width="105.463" height="85" fill="white"/>
</clipPath>
</defs>
</svg>
